<svg width="144" height="13" viewBox="0 0 144 13" fill="none" xmlns="http://www.w3.org/2000/svg">
<path d="M0.344 9V0.455999H2.344V3.928H6.648V0.455999H8.648V9H6.648V5.624H2.344V9H0.344ZM16.5124 9V7.272L16.4004 6.904V3.88C16.4004 3.29333 16.2244 2.84 15.8724 2.52C15.5204 2.18933 14.987 2.024 14.2724 2.024C13.7924 2.024 13.3177 2.09867 12.8484 2.248C12.3897 2.39733 12.0004 2.60533 11.6804 2.872L10.8964 1.416C11.355 1.064 11.899 0.802666 12.5284 0.632C13.1684 0.450666 13.8297 0.36 14.5124 0.36C15.7497 0.36 16.7044 0.658666 17.3764 1.256C18.059 1.84267 18.4004 2.75467 18.4004 3.992V9H16.5124ZM13.8244 9.112C13.1844 9.112 12.6244 9.00533 12.1444 8.792C11.6644 8.568 11.291 8.264 11.0244 7.88C10.7684 7.48533 10.6404 7.04267 10.6404 6.552C10.6404 6.072 10.7524 5.64 10.9764 5.256C11.211 4.872 11.5897 4.568 12.1124 4.344C12.635 4.12 13.3284 4.008 14.1924 4.008H16.6724V5.336H14.3364C13.6537 5.336 13.195 5.448 12.9604 5.672C12.7257 5.88533 12.6084 6.152 12.6084 6.472C12.6084 6.83467 12.7524 7.12267 13.0404 7.336C13.3284 7.54933 13.7284 7.656 14.2404 7.656C14.731 7.656 15.1684 7.544 15.5524 7.32C15.947 7.096 16.2297 6.76533 16.4004 6.328L16.7364 7.528C16.5444 8.02933 16.1977 8.41867 15.6964 8.696C15.2057 8.97333 14.5817 9.112 13.8244 9.112ZM25.6113 9.112C24.9179 9.112 24.2833 8.952 23.7073 8.632C23.1419 8.312 22.6886 7.832 22.3473 7.192C22.0166 6.54133 21.8513 5.72 21.8513 4.728C21.8513 3.72533 22.0113 2.904 22.3313 2.264C22.6619 1.624 23.1099 1.14933 23.6753 0.839999C24.2406 0.52 24.8859 0.36 25.6113 0.36C26.4539 0.36 27.1953 0.541333 27.8353 0.903999C28.4859 1.26667 28.9979 1.77333 29.3713 2.424C29.7553 3.07467 29.9473 3.84267 29.9473 4.728C29.9473 5.61333 29.7553 6.38667 29.3713 7.048C28.9979 7.69867 28.4859 8.20533 27.8353 8.568C27.1953 8.93067 26.4539 9.112 25.6113 9.112ZM20.8753 12.104V0.455999H22.7793V2.472L22.7153 4.744L22.8753 7.016V12.104H20.8753ZM25.3873 7.4C25.8673 7.4 26.2939 7.29333 26.6673 7.08C27.0513 6.86667 27.3553 6.55733 27.5793 6.152C27.8033 5.74667 27.9153 5.272 27.9153 4.728C27.9153 4.17333 27.8033 3.69867 27.5793 3.304C27.3553 2.89867 27.0513 2.58933 26.6673 2.376C26.2939 2.16267 25.8673 2.056 25.3873 2.056C24.9073 2.056 24.4753 2.16267 24.0913 2.376C23.7073 2.58933 23.4033 2.89867 23.1793 3.304C22.9553 3.69867 22.8433 4.17333 22.8433 4.728C22.8433 5.272 22.9553 5.74667 23.1793 6.152C23.4033 6.55733 23.7073 6.86667 24.0913 7.08C24.4753 7.29333 24.9073 7.4 25.3873 7.4ZM32.4714 12.216C32.0554 12.216 31.6394 12.1467 31.2234 12.008C30.8074 11.8693 30.4607 11.6773 30.1834 11.432L30.9834 9.96C31.186 10.1413 31.4154 10.2853 31.6714 10.392C31.9274 10.4987 32.1887 10.552 32.4554 10.552C32.818 10.552 33.1114 10.4613 33.3354 10.28C33.5594 10.0987 33.7674 9.79467 33.9594 9.368L34.4554 8.248L34.6154 8.008L37.8474 0.455999H39.7674L35.7674 9.688C35.5007 10.328 35.202 10.8347 34.8714 11.208C34.5514 11.5813 34.1887 11.8427 33.7834 11.992C33.3887 12.1413 32.9514 12.216 32.4714 12.216ZM34.2314 9.304L30.3754 0.455999H32.4554L35.5914 7.832L34.2314 9.304ZM46.9005 7.304L46.4685 7.784V0.455999H48.4685V7.784L47.9885 7.304H52.2125L51.7485 7.784V0.455999H53.7485V9H41.1565V0.455999H43.1565V7.784L42.6925 7.304H46.9005ZM60.4218 9.112C59.4724 9.112 58.6404 8.92533 57.9258 8.552C57.2218 8.168 56.6724 7.64533 56.2778 6.984C55.8938 6.32267 55.7018 5.57067 55.7018 4.728C55.7018 3.87467 55.8884 3.12267 56.2618 2.472C56.6458 1.81067 57.1684 1.29333 57.8298 0.92C58.5018 0.546666 59.2644 0.36 60.1178 0.36C60.9498 0.36 61.6911 0.541333 62.3418 0.903999C62.9924 1.26667 63.5044 1.77867 63.8778 2.44C64.2511 3.10133 64.4378 3.88 64.4378 4.776C64.4378 4.86133 64.4324 4.95733 64.4218 5.064C64.4218 5.17067 64.4164 5.272 64.4058 5.368H57.2858V4.04H63.3498L62.5658 4.456C62.5764 3.96533 62.4751 3.53333 62.2618 3.16C62.0484 2.78667 61.7551 2.49333 61.3818 2.28C61.0191 2.06667 60.5978 1.96 60.1178 1.96C59.6271 1.96 59.1951 2.06667 58.8218 2.28C58.4591 2.49333 58.1711 2.792 57.9578 3.176C57.7551 3.54933 57.6538 3.992 57.6538 4.504V4.824C57.6538 5.336 57.7711 5.78933 58.0058 6.184C58.2404 6.57867 58.5711 6.88267 58.9978 7.096C59.4244 7.30933 59.9151 7.416 60.4698 7.416C60.9498 7.416 61.3818 7.34133 61.7658 7.192C62.1498 7.04267 62.4911 6.808 62.7898 6.488L63.8618 7.72C63.4778 8.168 62.9924 8.51467 62.4058 8.76C61.8298 8.99467 61.1684 9.112 60.4218 9.112ZM66.6253 9V0.455999H68.6253V3.928H72.9293V0.455999H74.9293V9H72.9293V5.624H68.6253V9H66.6253ZM77.6096 9V0.455999H79.6096V6.088L84.3296 0.455999H86.1536V9H84.1536V3.368L79.4496 9H77.6096ZM94.268 9V6.088L94.556 6.424H91.996C90.8227 6.424 89.9 6.17867 89.228 5.688C88.5667 5.18667 88.236 4.46667 88.236 3.528C88.236 2.52533 88.588 1.76267 89.292 1.24C90.0067 0.717333 90.956 0.455999 92.14 0.455999H96.06V9H94.268ZM88.124 9L90.428 5.736H92.476L90.268 9H88.124ZM94.268 5.448V1.608L94.556 2.136H92.204C91.5853 2.136 91.1053 2.25333 90.764 2.488C90.4333 2.712 90.268 3.08 90.268 3.592C90.268 4.552 90.892 5.032 92.14 5.032H94.556L94.268 5.448ZM98.7503 9V0.455999H100.846L104.286 6.52H103.454L107.07 0.455999H108.942L108.958 9H107.15V2.6L107.47 2.808L104.27 8.104H103.406L100.19 2.664L100.574 2.568V9H98.7503Z" fill="black"/>
<path d="M112.249 9.112C111.886 9.112 111.577 8.98933 111.321 8.744C111.065 8.488 110.937 8.168 110.937 7.784C110.937 7.37867 111.065 7.05867 111.321 6.824C111.577 6.57867 111.886 6.456 112.249 6.456C112.612 6.456 112.921 6.57867 113.177 6.824C113.433 7.05867 113.561 7.37867 113.561 7.784C113.561 8.168 113.433 8.488 113.177 8.744C112.921 8.98933 112.612 9.112 112.249 9.112ZM115.547 9V0.455999H117.547V3.928H121.851V0.455999H123.851V9H121.851V5.624H117.547V9H115.547ZM130.516 9.112C129.566 9.112 128.734 8.92533 128.02 8.552C127.316 8.168 126.766 7.64533 126.372 6.984C125.988 6.32267 125.796 5.57067 125.796 4.728C125.796 3.87467 125.982 3.12267 126.356 2.472C126.74 1.81067 127.262 1.29333 127.924 0.92C128.596 0.546666 129.358 0.36 130.212 0.36C131.044 0.36 131.785 0.541333 132.436 0.903999C133.086 1.26667 133.598 1.77867 133.972 2.44C134.345 3.10133 134.532 3.88 134.532 4.776C134.532 4.86133 134.526 4.95733 134.516 5.064C134.516 5.17067 134.51 5.272 134.5 5.368H127.38V4.04H133.444L132.66 4.456C132.67 3.96533 132.569 3.53333 132.356 3.16C132.142 2.78667 131.849 2.49333 131.476 2.28C131.113 2.06667 130.692 1.96 130.212 1.96C129.721 1.96 129.289 2.06667 128.916 2.28C128.553 2.49333 128.265 2.792 128.052 3.176C127.849 3.54933 127.748 3.992 127.748 4.504V4.824C127.748 5.336 127.865 5.78933 128.1 6.184C128.334 6.57867 128.665 6.88267 129.092 7.096C129.518 7.30933 130.009 7.416 130.564 7.416C131.044 7.416 131.476 7.34133 131.86 7.192C132.244 7.04267 132.585 6.808 132.884 6.488L133.956 7.72C133.572 8.168 133.086 8.51467 132.5 8.76C131.924 8.99467 131.262 9.112 130.516 9.112ZM138.167 9V1.672L138.631 2.152H135.159V0.455999H143.159V2.152H139.703L140.167 1.672V9H138.167Z" fill="#030092"/>
</svg>
